<?xml version="1.0" standalone="no"?>
<!DOCTYPE svg PUBLIC "-//W3C//DTD SVG 20010904//EN"
 "http://www.w3.org/TR/2001/REC-SVG-20010904/DTD/svg10.dtd">
<svg version="1.0" xmlns="http://www.w3.org/2000/svg"
 width="101.000000pt" height="103.000000pt" viewBox="0 0 101.000000 103.000000"
 preserveAspectRatio="xMidYMid meet">

<g transform="translate(0.000000,103.000000) scale(0.100000,-0.100000)"
fill="#000000" stroke="none">
<path d="M355 912 c-120 -41 -205 -117 -258 -230 -30 -63 -32 -74 -32 -177 0
-103 2 -114 32 -177 44 -93 109 -160 200 -205 65 -32 86 -37 162 -41 146 -7
252 36 346 140 146 163 146 411 -2 569 -57 62 -107 94 -181 120 -71 25 -198
25 -267 1z m315 -402 l0 -200 -200 0 -200 0 0 65 c0 39 4 65 10 65 6 0 22 11
35 25 26 25 34 82 15 101 -7 7 5 24 33 52 40 40 45 42 74 31 37 -12 88 8 98
41 5 17 15 20 71 20 l64 0 0 -200z"/>
</g>
</svg>
